# Blender v2.82 (sub 7) OBJ File: 'door.blend'
# www.blender.org
o Cube
v -0.478408 -0.185266 2.868832
v -0.478408 6.814734 2.868832
v -0.478408 -0.185266 -2.868832
v -0.478408 6.814734 -2.868832
v 0.478408 -0.185266 2.868832
v 0.478408 6.814734 2.868832
v 0.478408 -0.185266 -2.868832
v 0.478408 6.814734 -2.868832
v -0.478408 -0.185266 0.000000
v -0.478408 3.314734 2.868832
v -0.478408 6.814734 0.000000
v -0.478408 3.314734 -2.868832
v -0.478408 3.314734 0.000000
v -0.478408 -0.185266 1.434416
v -0.478408 5.064734 2.868832
v -0.478408 6.814734 -1.434416
v -0.478408 1.564734 -2.868832
v -0.478408 -0.185266 -1.434416
v -0.478408 1.564734 2.868832
v -0.478408 6.814734 1.434416
v -0.478408 5.064734 -2.868832
v -0.478408 3.314734 -1.434416
v -0.478408 3.314734 1.434416
v -0.478408 1.564734 0.000000
v -0.478408 5.064734 0.000000
v -0.478408 5.064734 1.434416
v -0.478408 1.564734 1.434416
v -0.478408 1.564734 -1.434416
v -0.478408 5.064734 -1.434416
v -0.478408 -0.185266 2.151624
v -0.478408 5.939734 2.868832
v -0.478408 6.814734 -2.151624
v -0.478408 0.689734 -2.868832
v -0.478408 -0.185266 -0.717208
v -0.478408 2.439734 2.868832
v -0.478408 6.814734 0.717208
v -0.478408 4.189734 -2.868832
v -0.478408 3.314734 -2.151624
v -0.478408 3.314734 0.717208
v -0.478408 0.689734 0.000000
v -0.478408 4.189734 0.000000
v -0.478408 -0.185266 0.717208
v -0.478408 4.189734 2.868832
v -0.478408 6.814734 -0.717208
v -0.478408 2.439734 -2.868832
v -0.478408 -0.185266 -2.151624
v -0.478408 0.689734 2.868832
v -0.478408 6.814734 2.151624
v -0.478408 5.939734 -2.868832
v -0.478408 3.314734 -0.717208
v -0.478408 3.314734 2.151624
v -0.478408 2.439734 0.000000
v -0.478408 5.939734 0.000000
v -0.478408 5.064734 0.717208
v -0.478408 5.064734 2.151624
v -0.478408 4.189734 1.434416
v -0.478408 5.939734 1.434416
v -0.478408 1.564734 0.717208
v -0.478408 1.564734 2.151624
v -0.478408 0.689734 1.434416
v -0.478408 2.439734 1.434416
v -0.478408 1.564734 -2.151624
v -0.478408 1.564734 -0.717208
v -0.478408 0.689734 -1.434416
v -0.478408 2.439734 -1.434416
v -0.478408 5.064734 -2.151624
v -0.478408 5.064734 -0.717208
v -0.478408 4.189734 -1.434416
v -0.478408 5.939734 -1.434416
v -0.478408 5.939734 -0.717208
v -0.478408 4.189734 -0.717208
v -0.478408 4.189734 -2.151624
v -0.478408 2.439734 -0.717208
v -0.478408 0.689734 -0.717208
v -0.478408 0.689734 -2.151624
v -0.478408 2.439734 2.151624
v -0.478408 0.689734 2.151624
v -0.478408 0.689734 0.717208
v -0.478408 5.939734 2.151624
v -0.478408 4.189734 2.151624
v -0.478408 4.189734 0.717208
v -0.478408 5.939734 0.717208
v -0.478408 2.439734 0.717208
v -0.478408 2.439734 -2.151624
v -0.478408 5.939734 -2.151624
v 0.478408 3.314734 -2.868832
v 0.478408 -0.185266 0.000000
v 0.478408 6.814734 0.000000
v 0.478408 3.314734 2.868832
v 0.478408 3.314734 0.000000
v 0.478408 1.564734 -2.868832
v 0.478408 -0.185266 -1.434416
v 0.478408 6.814734 1.434416
v 0.478408 1.564734 2.868832
v 0.478408 5.064734 -2.868832
v 0.478408 -0.185266 1.434416
v 0.478408 6.814734 -1.434416
v 0.478408 5.064734 2.868832
v 0.478408 3.314734 1.434416
v 0.478408 3.314734 -1.434416
v 0.478408 1.564734 0.000000
v 0.478408 5.064734 0.000000
v 0.478408 5.064734 -1.434416
v 0.478408 1.564734 -1.434416
v 0.478408 1.564734 1.434416
v 0.478408 5.064734 1.434416
v 0.478408 0.689734 -2.868832
v 0.478408 -0.185266 -2.151624
v 0.478408 6.814734 2.151624
v 0.478408 0.689734 2.868832
v 0.478408 4.189734 -2.868832
v 0.478408 -0.185266 0.717208
v 0.478408 6.814734 -0.717208
v 0.478408 4.189734 2.868832
v 0.478408 3.314734 2.151624
v 0.478408 3.314734 -0.717208
v 0.478408 0.689734 0.000000
v 0.478408 4.189734 0.000000
v 0.478408 2.439734 -2.868832
v 0.478408 -0.185266 -0.717208
v 0.478408 6.814734 0.717208
v 0.478408 2.439734 2.868832
v 0.478408 5.939734 -2.868832
v 0.478408 -0.185266 2.151624
v 0.478408 6.814734 -2.151624
v 0.478408 5.939734 2.868832
v 0.478408 3.314734 0.717208
v 0.478408 3.314734 -2.151624
v 0.478408 2.439734 0.000000
v 0.478408 5.939734 0.000000
v 0.478408 5.064734 -0.717208
v 0.478408 5.064734 -2.151624
v 0.478408 4.189734 -1.434416
v 0.478408 5.939734 -1.434416
v 0.478408 1.564734 -0.717208
v 0.478408 1.564734 -2.151624
v 0.478408 0.689734 -1.434416
v 0.478408 2.439734 -1.434416
v 0.478408 1.564734 2.151624
v 0.478408 1.564734 0.717208
v 0.478408 0.689734 1.434416
v 0.478408 2.439734 1.434416
v 0.478408 5.064734 2.151624
v 0.478408 5.064734 0.717208
v 0.478408 4.189734 1.434416
v 0.478408 5.939734 1.434416
v 0.478408 5.939734 0.717208
v 0.478408 4.189734 0.717208
v 0.478408 4.189734 2.151624
v 0.478408 2.439734 0.717208
v 0.478408 0.689734 0.717208
v 0.478408 0.689734 2.151624
v 0.478408 2.439734 -2.151624
v 0.478408 0.689734 -2.151624
v 0.478408 0.689734 -0.717208
v 0.478408 5.939734 -2.151624
v 0.478408 4.189734 -2.151624
v 0.478408 4.189734 -0.717208
v 0.478408 5.939734 -0.717208
v 0.478408 2.439734 -0.717208
v 0.478408 2.439734 2.151624
v 0.478408 5.939734 2.151624
vt 0.637534 0.565520
vt 0.606284 0.596770
vt 0.606284 0.565520
vt 0.593750 0.250000
vt 0.625000 0.500000
vt 0.593750 0.500000
vt 0.652157 0.566255
vt 0.620907 0.597505
vt 0.620907 0.566255
vt 0.639707 0.338472
vt 0.670957 0.588472
vt 0.639707 0.588472
vt 0.375000 0.718750
vt 0.375000 0.750000
vt 0.125000 0.750000
vt 0.693259 0.576700
vt 0.693259 0.607950
vt 0.443259 0.607950
vt 0.512534 0.565520
vt 0.481284 0.596770
vt 0.481284 0.565520
vt 0.708216 0.085053
vt 0.694359 0.098910
vt 0.694359 0.085053
vt 0.637534 0.440520
vt 0.606284 0.471770
vt 0.606284 0.440520
vt 0.575034 0.440520
vt 0.543784 0.471770
vt 0.543784 0.440520
vt 0.575034 0.378020
vt 0.543784 0.409270
vt 0.543784 0.378020
vt 0.637534 0.378020
vt 0.606284 0.409270
vt 0.606284 0.378020
vt 0.450034 0.440520
vt 0.418784 0.471770
vt 0.418784 0.440520
vt 0.450034 0.378020
vt 0.418784 0.409270
vt 0.418784 0.378020
vt 0.708216 0.057340
vt 0.694359 0.071197
vt 0.694359 0.057340
vt 0.450034 0.565520
vt 0.418784 0.596770
vt 0.418784 0.565520
vt 0.450034 0.503020
vt 0.418784 0.534270
vt 0.418784 0.503020
vt 0.512534 0.503020
vt 0.481284 0.534270
vt 0.481284 0.503020
vt 0.575034 0.565520
vt 0.543784 0.596770
vt 0.543784 0.565520
vt 0.575034 0.503020
vt 0.543784 0.534270
vt 0.543784 0.503020
vt 0.637534 0.503020
vt 0.606284 0.534270
vt 0.606284 0.503020
vt 0.575034 0.534270
vt 0.575034 0.471770
vt 0.637534 0.471770
vt 0.512534 0.534270
vt 0.512534 0.471770
vt 0.512534 0.596770
vt 0.450034 0.534270
vt 0.481284 0.471770
vt 0.450034 0.471770
vt 0.387534 0.534270
vt 0.387534 0.503020
vt 0.387534 0.471770
vt 0.387534 0.596770
vt 0.387534 0.565520
vt 0.680502 0.071197
vt 0.680502 0.057340
vt 0.481284 0.346770
vt 0.450034 0.346770
vt 0.512534 0.346770
vt 0.481284 0.378020
vt 0.387534 0.409270
vt 0.387534 0.378020
vt 0.418784 0.346770
vt 0.387534 0.346770
vt 0.387534 0.440520
vt 0.450034 0.409270
vt 0.575034 0.409270
vt 0.606284 0.346770
vt 0.575034 0.346770
vt 0.637534 0.346770
vt 0.512534 0.409270
vt 0.512534 0.378020
vt 0.543784 0.346770
vt 0.512534 0.440520
vt 0.637534 0.409270
vt 0.680502 0.098910
vt 0.680502 0.085053
vt 0.708216 0.071197
vt 0.450034 0.596770
vt 0.575034 0.596770
vt 0.637534 0.534270
vt 0.527157 0.566255
vt 0.495907 0.597505
vt 0.495907 0.566255
vt 0.527157 0.441255
vt 0.495907 0.472505
vt 0.495907 0.441255
vt 0.652157 0.441255
vt 0.620907 0.472505
vt 0.620907 0.441255
vt 0.589657 0.441255
vt 0.558407 0.472505
vt 0.558407 0.441255
vt 0.589657 0.378755
vt 0.558407 0.410005
vt 0.558407 0.378755
vt 0.652157 0.378755
vt 0.620907 0.410005
vt 0.620907 0.378755
vt 0.464657 0.441255
vt 0.433407 0.472505
vt 0.433407 0.441255
vt 0.464657 0.378755
vt 0.433407 0.410005
vt 0.433407 0.378755
vt 0.723053 0.085488
vt 0.711071 0.097470
vt 0.711071 0.085488
vt 0.464657 0.566255
vt 0.433407 0.597505
vt 0.433407 0.566255
vt 0.464657 0.503755
vt 0.433407 0.535005
vt 0.433407 0.503755
vt 0.527157 0.503755
vt 0.495907 0.535005
vt 0.495907 0.503755
vt 0.589657 0.566255
vt 0.558407 0.597505
vt 0.558407 0.566255
vt 0.589657 0.503755
vt 0.558407 0.535005
vt 0.558407 0.503755
vt 0.652157 0.503755
vt 0.620907 0.535005
vt 0.620907 0.503755
vt 0.589657 0.535005
vt 0.589657 0.472505
vt 0.652157 0.472505
vt 0.527157 0.535005
vt 0.527157 0.472505
vt 0.527157 0.597505
vt 0.464657 0.535005
vt 0.464657 0.472505
vt 0.402157 0.535005
vt 0.402157 0.503755
vt 0.402157 0.472505
vt 0.402157 0.597505
vt 0.402157 0.566255
vt 0.699089 0.097470
vt 0.699089 0.085488
vt 0.711071 0.073506
vt 0.699089 0.073506
vt 0.723053 0.073506
vt 0.402157 0.410005
vt 0.402157 0.378755
vt 0.433407 0.347505
vt 0.402157 0.347505
vt 0.464657 0.347505
vt 0.402157 0.441255
vt 0.464657 0.410005
vt 0.589657 0.410005
vt 0.620907 0.347505
vt 0.589657 0.347505
vt 0.652157 0.347505
vt 0.527157 0.410005
vt 0.527157 0.378755
vt 0.558407 0.347505
vt 0.527157 0.347505
vt 0.652157 0.410005
vt 0.699089 0.109452
vt 0.723053 0.097470
vt 0.711071 0.109452
vt 0.464657 0.597505
vt 0.589657 0.597505
vt 0.652157 0.535005
vt 0.637534 0.596770
vt 0.375000 0.500000
vt 0.375000 0.250000
vt 0.406250 0.250000
vt 0.437500 0.250000
vt 0.468750 0.250000
vt 0.437500 0.500000
vt 0.500000 0.250000
vt 0.468750 0.500000
vt 0.406250 0.500000
vt 0.531250 0.250000
vt 0.500000 0.500000
vt 0.562500 0.250000
vt 0.531250 0.500000
vt 0.625000 0.250000
vt 0.562500 0.500000
vt 0.652157 0.597505
vt 0.420957 0.588472
vt 0.420957 0.338472
vt 0.452207 0.338472
vt 0.483457 0.338472
vt 0.514707 0.338472
vt 0.483457 0.588472
vt 0.545957 0.338472
vt 0.514707 0.588472
vt 0.452207 0.588472
vt 0.577207 0.338472
vt 0.545957 0.588472
vt 0.608457 0.338472
vt 0.577207 0.588472
vt 0.670957 0.338472
vt 0.608457 0.588472
vt 0.125000 0.531250
vt 0.125000 0.500000
vt 0.375000 0.531250
vt 0.375000 0.562500
vt 0.125000 0.562500
vt 0.375000 0.593750
vt 0.125000 0.625000
vt 0.125000 0.593750
vt 0.375000 0.625000
vt 0.375000 0.656250
vt 0.125000 0.687500
vt 0.125000 0.656250
vt 0.375000 0.687500
vt 0.125000 0.718750
vt 0.443259 0.389200
vt 0.443259 0.357950
vt 0.693259 0.357950
vt 0.693259 0.389200
vt 0.693259 0.420450
vt 0.443259 0.420450
vt 0.693259 0.451700
vt 0.443259 0.482950
vt 0.443259 0.451700
vt 0.693259 0.482950
vt 0.693259 0.514200
vt 0.443259 0.545450
vt 0.443259 0.514200
vt 0.693259 0.545450
vt 0.443259 0.576700
vt 0.708216 0.098910
vt 0.723053 0.109452
vn -1.0000 0.0000 0.0000
vn 0.0000 0.0000 -1.0000
vn 1.0000 0.0000 0.0000
vn 0.0000 0.0000 1.0000
vn 0.0000 -1.0000 0.0000
vn 0.0000 1.0000 0.0000
s off
f 32/1/1 49/2/1 85/3/1
f 49/4/2 8/5/2 123/6/2
f 109/7/3 126/8/3 162/9/3
f 126/10/4 2/11/4 31/12/4
f 124/13/5 5/14/5 1/15/5
f 48/16/6 2/17/6 6/18/6
f 38/19/1 45/20/1 84/21/1
f 39/22/1 52/23/1 83/24/1
f 36/25/1 53/26/1 82/27/1
f 54/28/1 41/29/1 81/30/1
f 55/31/1 56/32/1 80/33/1
f 48/34/1 57/35/1 79/36/1
f 58/37/1 40/38/1 78/39/1
f 59/40/1 60/41/1 77/42/1
f 51/43/1 61/44/1 76/45/1
f 62/46/1 33/47/1 75/48/1
f 63/49/1 64/50/1 74/51/1
f 50/52/1 65/53/1 73/54/1
f 66/55/1 37/56/1 72/57/1
f 67/58/1 68/59/1 71/60/1
f 44/61/1 69/62/1 70/63/1
f 70/63/1 29/64/1 67/58/1
f 53/26/1 67/58/1 25/65/1
f 11/66/1 70/63/1 53/26/1
f 71/60/1 22/67/1 50/52/1
f 41/29/1 50/52/1 13/68/1
f 25/65/1 71/60/1 41/29/1
f 72/57/1 12/69/1 38/19/1
f 68/59/1 38/19/1 22/67/1
f 29/64/1 72/57/1 68/59/1
f 73/54/1 28/70/1 63/49/1
f 52/71/1 63/49/1 24/72/1
f 13/68/1 73/54/1 52/71/1
f 74/51/1 18/73/1 34/74/1
f 40/38/1 34/74/1 9/75/1
f 24/72/1 74/51/1 40/38/1
f 75/48/1 3/76/1 46/77/1
f 64/50/1 46/77/1 18/73/1
f 28/70/1 75/48/1 64/50/1
f 76/45/1 27/78/1 59/79/1
f 35/80/1 59/40/1 19/81/1
f 10/82/1 76/83/1 35/80/1
f 77/42/1 14/84/1 30/85/1
f 47/86/1 30/85/1 1/87/1
f 19/81/1 77/42/1 47/86/1
f 78/39/1 9/75/1 42/88/1
f 60/41/1 42/88/1 14/84/1
f 27/89/1 78/39/1 60/41/1
f 79/36/1 26/90/1 55/31/1
f 31/91/1 55/31/1 15/92/1
f 2/93/1 79/36/1 31/91/1
f 80/33/1 23/94/1 51/95/1
f 43/96/1 51/95/1 10/82/1
f 15/92/1 80/33/1 43/96/1
f 81/30/1 13/68/1 39/97/1
f 56/32/1 39/97/1 23/94/1
f 26/90/1 81/30/1 56/32/1
f 82/27/1 25/65/1 54/28/1
f 57/35/1 54/28/1 26/90/1
f 20/98/1 82/27/1 57/35/1
f 83/24/1 24/99/1 58/100/1
f 61/44/1 58/100/1 27/78/1
f 23/101/1 83/24/1 61/44/1
f 84/21/1 17/102/1 62/46/1
f 65/53/1 62/46/1 28/70/1
f 22/67/1 84/21/1 65/53/1
f 85/3/1 21/103/1 66/55/1
f 69/62/1 66/55/1 29/64/1
f 16/104/1 85/3/1 69/62/1
f 115/105/3 122/106/3 161/107/3
f 116/108/3 129/109/3 160/110/3
f 113/111/3 130/112/3 159/113/3
f 131/114/3 118/115/3 158/116/3
f 132/117/3 133/118/3 157/119/3
f 125/120/3 134/121/3 156/122/3
f 135/123/3 117/124/3 155/125/3
f 136/126/3 137/127/3 154/128/3
f 128/129/3 138/130/3 153/131/3
f 139/132/3 110/133/3 152/134/3
f 140/135/3 141/136/3 151/137/3
f 127/138/3 142/139/3 150/140/3
f 143/141/3 114/142/3 149/143/3
f 144/144/3 145/145/3 148/146/3
f 121/147/3 146/148/3 147/149/3
f 147/149/3 106/150/3 144/144/3
f 130/112/3 144/144/3 102/151/3
f 88/152/3 147/149/3 130/112/3
f 148/146/3 99/153/3 127/138/3
f 118/115/3 127/138/3 90/154/3
f 102/151/3 148/146/3 118/115/3
f 149/143/3 89/155/3 115/105/3
f 145/145/3 115/105/3 99/153/3
f 106/150/3 149/143/3 145/145/3
f 150/140/3 105/156/3 140/135/3
f 129/109/3 140/135/3 101/157/3
f 90/154/3 150/140/3 129/109/3
f 151/137/3 96/158/3 112/159/3
f 117/124/3 112/159/3 87/160/3
f 101/157/3 151/137/3 117/124/3
f 152/134/3 5/161/3 124/162/3
f 141/136/3 124/162/3 96/158/3
f 105/156/3 152/134/3 141/136/3
f 153/131/3 104/163/3 136/164/3
f 119/165/3 136/164/3 91/166/3
f 86/167/3 153/131/3 119/165/3
f 154/128/3 92/168/3 108/169/3
f 107/170/3 108/169/3 7/171/3
f 91/172/3 154/128/3 107/170/3
f 155/125/3 87/160/3 120/173/3
f 137/127/3 120/173/3 92/168/3
f 104/174/3 155/125/3 137/127/3
f 156/122/3 103/175/3 132/117/3
f 123/176/3 132/117/3 95/177/3
f 8/178/3 156/122/3 123/176/3
f 157/119/3 100/179/3 128/180/3
f 111/181/3 128/180/3 86/182/3
f 95/177/3 157/119/3 111/181/3
f 158/116/3 90/154/3 116/108/3
f 133/118/3 116/108/3 100/179/3
f 103/175/3 158/116/3 133/118/3
f 159/113/3 102/151/3 131/114/3
f 134/121/3 131/114/3 103/175/3
f 97/183/3 159/113/3 134/121/3
f 160/110/3 101/157/3 135/123/3
f 138/130/3 135/184/3 104/163/3
f 100/185/3 160/186/3 138/130/3
f 161/107/3 94/187/3 139/132/3
f 142/139/3 139/132/3 105/156/3
f 99/153/3 161/107/3 142/139/3
f 162/9/3 98/188/3 143/141/3
f 146/148/3 143/141/3 106/150/3
f 93/189/3 162/9/3 146/148/3
f 32/1/1 4/190/1 49/2/1
f 7/191/2 3/192/2 33/193/2
f 17/194/2 45/195/2 91/196/2
f 45/195/2 12/197/2 119/198/2
f 17/194/2 91/196/2 107/199/2
f 7/191/2 33/193/2 107/199/2
f 33/193/2 17/194/2 107/199/2
f 119/198/2 91/196/2 45/195/2
f 12/197/2 37/200/2 86/201/2
f 37/200/2 21/202/2 111/203/2
f 12/197/2 86/201/2 119/198/2
f 111/203/2 86/201/2 37/200/2
f 21/202/2 49/4/2 123/6/2
f 49/4/2 4/204/2 8/5/2
f 123/6/2 95/205/2 21/202/2
f 95/205/2 111/203/2 21/202/2
f 109/7/3 6/206/3 126/8/3
f 1/207/4 5/208/4 110/209/4
f 94/210/4 122/211/4 19/212/4
f 122/211/4 89/213/4 35/214/4
f 94/210/4 19/212/4 47/215/4
f 1/207/4 110/209/4 47/215/4
f 110/209/4 94/210/4 47/215/4
f 35/214/4 19/212/4 122/211/4
f 89/213/4 114/216/4 10/217/4
f 114/216/4 98/218/4 43/219/4
f 89/213/4 10/217/4 35/214/4
f 43/219/4 10/217/4 114/216/4
f 98/218/4 126/10/4 31/12/4
f 126/10/4 6/220/4 2/11/4
f 31/12/4 15/221/4 98/218/4
f 15/221/4 43/219/4 98/218/4
f 46/222/5 3/223/5 7/191/5
f 108/224/5 92/225/5 18/226/5
f 92/225/5 120/227/5 18/226/5
f 46/222/5 7/191/5 108/224/5
f 9/228/5 34/229/5 120/227/5
f 34/229/5 18/226/5 120/227/5
f 18/226/5 46/222/5 108/224/5
f 120/227/5 87/230/5 9/228/5
f 87/230/5 112/231/5 9/228/5
f 14/232/5 42/233/5 112/231/5
f 42/233/5 9/228/5 112/231/5
f 112/231/5 96/234/5 14/232/5
f 96/234/5 124/13/5 14/232/5
f 1/15/5 30/235/5 124/13/5
f 30/235/5 14/232/5 124/13/5
f 125/236/6 8/237/6 4/238/6
f 32/239/6 16/240/6 97/241/6
f 16/240/6 44/242/6 97/241/6
f 125/236/6 4/238/6 32/239/6
f 88/243/6 113/244/6 44/242/6
f 113/244/6 97/241/6 44/242/6
f 97/241/6 125/236/6 32/239/6
f 44/242/6 11/245/6 88/243/6
f 11/245/6 36/246/6 88/243/6
f 93/247/6 121/248/6 36/246/6
f 121/248/6 88/243/6 36/246/6
f 36/246/6 20/249/6 93/247/6
f 20/249/6 48/16/6 93/247/6
f 6/18/6 109/250/6 48/16/6
f 109/250/6 93/247/6 48/16/6
f 38/19/1 12/69/1 45/20/1
f 39/22/1 13/251/1 52/23/1
f 36/25/1 11/66/1 53/26/1
f 54/28/1 25/65/1 41/29/1
f 55/31/1 26/90/1 56/32/1
f 48/34/1 20/98/1 57/35/1
f 58/37/1 24/72/1 40/38/1
f 59/40/1 27/89/1 60/41/1
f 51/43/1 23/101/1 61/44/1
f 62/46/1 17/102/1 33/47/1
f 63/49/1 28/70/1 64/50/1
f 50/52/1 22/67/1 65/53/1
f 66/55/1 21/103/1 37/56/1
f 67/58/1 29/64/1 68/59/1
f 44/61/1 16/104/1 69/62/1
f 70/63/1 69/62/1 29/64/1
f 53/26/1 70/63/1 67/58/1
f 11/66/1 44/61/1 70/63/1
f 71/60/1 68/59/1 22/67/1
f 41/29/1 71/60/1 50/52/1
f 25/65/1 67/58/1 71/60/1
f 72/57/1 37/56/1 12/69/1
f 68/59/1 72/57/1 38/19/1
f 29/64/1 66/55/1 72/57/1
f 73/54/1 65/53/1 28/70/1
f 52/71/1 73/54/1 63/49/1
f 13/68/1 50/52/1 73/54/1
f 74/51/1 64/50/1 18/73/1
f 40/38/1 74/51/1 34/74/1
f 24/72/1 63/49/1 74/51/1
f 75/48/1 33/47/1 3/76/1
f 64/50/1 75/48/1 46/77/1
f 28/70/1 62/46/1 75/48/1
f 76/45/1 61/44/1 27/78/1
f 35/80/1 76/83/1 59/40/1
f 10/82/1 51/95/1 76/83/1
f 77/42/1 60/41/1 14/84/1
f 47/86/1 77/42/1 30/85/1
f 19/81/1 59/40/1 77/42/1
f 78/39/1 40/38/1 9/75/1
f 60/41/1 78/39/1 42/88/1
f 27/89/1 58/37/1 78/39/1
f 79/36/1 57/35/1 26/90/1
f 31/91/1 79/36/1 55/31/1
f 2/93/1 48/34/1 79/36/1
f 80/33/1 56/32/1 23/94/1
f 43/96/1 80/33/1 51/95/1
f 15/92/1 55/31/1 80/33/1
f 81/30/1 41/29/1 13/68/1
f 56/32/1 81/30/1 39/97/1
f 26/90/1 54/28/1 81/30/1
f 82/27/1 53/26/1 25/65/1
f 57/35/1 82/27/1 54/28/1
f 20/98/1 36/25/1 82/27/1
f 83/24/1 52/23/1 24/99/1
f 61/44/1 83/24/1 58/100/1
f 23/101/1 39/22/1 83/24/1
f 84/21/1 45/20/1 17/102/1
f 65/53/1 84/21/1 62/46/1
f 22/67/1 38/19/1 84/21/1
f 85/3/1 49/2/1 21/103/1
f 69/62/1 85/3/1 66/55/1
f 16/104/1 32/1/1 85/3/1
f 115/105/3 89/155/3 122/106/3
f 116/108/3 90/154/3 129/109/3
f 113/111/3 88/152/3 130/112/3
f 131/114/3 102/151/3 118/115/3
f 132/117/3 103/175/3 133/118/3
f 125/120/3 97/183/3 134/121/3
f 135/123/3 101/157/3 117/124/3
f 136/126/3 104/174/3 137/127/3
f 128/129/3 100/185/3 138/130/3
f 139/132/3 94/187/3 110/133/3
f 140/135/3 105/156/3 141/136/3
f 127/138/3 99/153/3 142/139/3
f 143/141/3 98/188/3 114/142/3
f 144/144/3 106/150/3 145/145/3
f 121/147/3 93/189/3 146/148/3
f 147/149/3 146/148/3 106/150/3
f 130/112/3 147/149/3 144/144/3
f 88/152/3 121/147/3 147/149/3
f 148/146/3 145/145/3 99/153/3
f 118/115/3 148/146/3 127/138/3
f 102/151/3 144/144/3 148/146/3
f 149/143/3 114/142/3 89/155/3
f 145/145/3 149/143/3 115/105/3
f 106/150/3 143/141/3 149/143/3
f 150/140/3 142/139/3 105/156/3
f 129/109/3 150/140/3 140/135/3
f 90/154/3 127/138/3 150/140/3
f 151/137/3 141/136/3 96/158/3
f 117/124/3 151/137/3 112/159/3
f 101/157/3 140/135/3 151/137/3
f 152/134/3 110/133/3 5/161/3
f 141/136/3 152/134/3 124/162/3
f 105/156/3 139/132/3 152/134/3
f 153/131/3 138/130/3 104/163/3
f 119/165/3 153/131/3 136/164/3
f 86/167/3 128/129/3 153/131/3
f 154/128/3 137/127/3 92/168/3
f 107/170/3 154/128/3 108/169/3
f 91/172/3 136/126/3 154/128/3
f 155/125/3 117/124/3 87/160/3
f 137/127/3 155/125/3 120/173/3
f 104/174/3 135/123/3 155/125/3
f 156/122/3 134/121/3 103/175/3
f 123/176/3 156/122/3 132/117/3
f 8/178/3 125/120/3 156/122/3
f 157/119/3 133/118/3 100/179/3
f 111/181/3 157/119/3 128/180/3
f 95/177/3 132/117/3 157/119/3
f 158/116/3 118/115/3 90/154/3
f 133/118/3 158/116/3 116/108/3
f 103/175/3 131/114/3 158/116/3
f 159/113/3 130/112/3 102/151/3
f 134/121/3 159/113/3 131/114/3
f 97/183/3 113/111/3 159/113/3
f 160/110/3 129/109/3 101/157/3
f 138/130/3 160/186/3 135/184/3
f 100/185/3 116/252/3 160/186/3
f 161/107/3 122/106/3 94/187/3
f 142/139/3 161/107/3 139/132/3
f 99/153/3 115/105/3 161/107/3
f 162/9/3 126/8/3 98/188/3
f 146/148/3 162/9/3 143/141/3
f 93/189/3 109/7/3 162/9/3
