# Blender v2.82 (sub 7) OBJ File: 'gun.blend'
# www.blender.org
o Cylinder
v 0.200899 -0.442085 -3.036649
v 0.215269 -0.443501 -3.036649
v 0.229088 -0.447692 -3.036649
v 0.241823 -0.454500 -3.036649
v 0.241823 -0.454500 -1.399889
v 0.159975 -0.576994 -3.036649
v 0.148812 -0.567833 -3.036649
v 0.139651 -0.556671 -3.036649
v 0.132844 -0.543936 -3.036649
v 0.128653 -0.530117 -3.036649
v 0.127237 -0.515747 -3.036649
v 0.128653 -0.501376 -3.036649
v 0.132844 -0.487558 -3.036649
v 0.139652 -0.474823 -3.036649
v 0.148812 -0.463660 -3.036649
v 0.159975 -0.454499 -3.036649
v 0.172710 -0.447692 -3.036649
v 0.186528 -0.443501 -3.036649
v 0.200899 -0.442085 -1.945476
v 0.215269 -0.443501 -1.945476
v 0.229088 -0.447693 -1.945476
v 0.241823 -0.454500 -1.945476
v 0.229088 -0.447693 -1.399889
v 0.159975 -0.454500 -1.127096
v 0.172710 -0.447693 -1.127096
v 0.186528 -0.443501 -1.127096
v 0.127237 -0.515747 -1.127096
v 0.215269 -0.443501 -1.127096
v 0.128653 -0.501376 -1.127096
v 0.229088 -0.447693 -1.127096
v 0.241823 -0.454500 -1.127096
v 0.148812 -0.567833 -1.945476
v 0.139651 -0.556671 -1.945476
v 0.132844 -0.543936 -1.945476
v 0.128653 -0.530117 -1.945476
v 0.127237 -0.515747 -1.945476
v 0.128653 -0.501376 -1.945476
v 0.132844 -0.487558 -1.945476
v 0.139652 -0.474823 -1.945476
v 0.148812 -0.463660 -1.945476
v 0.159975 -0.454500 -1.945476
v 0.172710 -0.447692 -1.945476
v 0.186528 -0.443501 -1.945476
v 0.215269 -0.443501 -2.491062
v 0.229088 -0.447693 -2.491062
v 0.241823 -0.454500 -2.491062
v 0.159975 -0.576994 -2.491062
v 0.148812 -0.567833 -2.491062
v 0.139651 -0.556671 -2.491062
v 0.132844 -0.543936 -2.491062
v 0.128653 -0.530117 -2.491062
v 0.127237 -0.515747 -2.491062
v 0.128653 -0.501376 -2.491062
v 0.132844 -0.487558 -2.491062
v 0.139652 -0.474823 -2.491062
v 0.148812 -0.463660 -2.491062
v 0.159975 -0.454499 -2.491062
v 0.172710 -0.447692 -2.491062
v 0.186528 -0.443501 -2.491062
v 0.200899 -0.442085 -2.491062
v 0.200899 -0.442085 -2.218269
v 0.215269 -0.443501 -2.218269
v 0.229088 -0.447693 -2.218269
v 0.241823 -0.454500 -2.218269
v 0.215269 -0.443501 -1.399889
v 0.139651 -0.556671 -1.399889
v 0.148812 -0.567833 -1.127096
v 0.139651 -0.556671 -1.127096
v 0.132844 -0.543936 -1.127096
v 0.200899 -0.442085 -1.127096
v 0.186528 -0.443501 -1.399889
v 0.172710 -0.447693 -1.399889
v 0.159975 -0.454500 -1.399889
v 0.148812 -0.567833 -2.218269
v 0.139651 -0.556671 -2.218269
v 0.132844 -0.543936 -2.218269
v 0.128653 -0.530117 -2.218269
v 0.127237 -0.515747 -2.218269
v 0.128653 -0.501376 -2.218269
v 0.132844 -0.487558 -2.218269
v 0.139652 -0.474823 -2.218269
v 0.148812 -0.463660 -2.218269
v 0.159975 -0.454499 -2.218269
v 0.172710 -0.447692 -2.218269
v 0.186528 -0.443501 -2.218269
v 0.215269 -0.443501 -2.354666
v 0.229088 -0.447693 -2.354666
v 0.241823 -0.454500 -2.354666
v 0.200899 -0.442085 -1.399889
v 0.148812 -0.567833 -1.399889
v 0.148812 -0.463660 -1.399889
v 0.139652 -0.474823 -1.399889
v 0.132844 -0.487558 -1.399889
v 0.128653 -0.501376 -1.399889
v 0.127237 -0.515747 -1.399889
v 0.128653 -0.530117 -1.399889
v 0.132844 -0.543936 -1.399889
v 0.128653 -0.530117 -1.127096
v 0.132844 -0.487558 -1.127096
v 0.139652 -0.474823 -1.127096
v 0.148812 -0.463660 -1.127096
v 0.159975 -0.576994 -2.354666
v 0.148812 -0.567833 -2.354666
v 0.139651 -0.556671 -2.354666
v 0.132844 -0.543936 -2.354666
v 0.128653 -0.530117 -2.354666
v 0.127237 -0.515747 -2.354666
v 0.128653 -0.501376 -2.354666
v 0.132844 -0.487558 -2.354666
v 0.139652 -0.474823 -2.354666
v 0.148812 -0.463660 -2.354666
v 0.159975 -0.454499 -2.354666
v 0.172710 -0.447692 -2.354666
v 0.186528 -0.443501 -2.354666
v 0.200899 -0.442085 -2.354666
vt 0.468297 0.571235
vt 0.458803 0.494649
vt 0.468297 0.494649
vt 0.449310 0.494649
vt 0.439816 0.456357
vt 0.449310 0.456357
vt 0.458803 0.456357
vt 0.468297 0.456357
vt 0.477790 0.494649
vt 0.477790 0.456357
vt 0.487284 0.494649
vt 0.487284 0.456357
vt 0.496777 0.494649
vt 0.496777 0.456357
vt 0.506271 0.494649
vt 0.506271 0.456357
vt 0.515764 0.494649
vt 0.515764 0.456357
vt 0.525258 0.494649
vt 0.525258 0.456357
vt 0.534751 0.494649
vt 0.534751 0.456357
vt 0.544244 0.494649
vt 0.544244 0.456357
vt 0.553738 0.494649
vt 0.553738 0.456357
vt 0.477790 0.609527
vt 0.477790 0.571235
vt 0.468297 0.609527
vt 0.458803 0.571235
vt 0.458803 0.609527
vt 0.449310 0.571235
vt 0.449310 0.609527
vt 0.439816 0.571235
vt 0.616477 0.579543
vt 0.603926 0.482510
vt 0.616477 0.482510
vt 0.603926 0.579543
vt 0.591375 0.482510
vt 0.547289 0.565491
vt 0.536274 0.476633
vt 0.547289 0.476633
vt 0.553738 0.571235
vt 0.536274 0.432203
vt 0.547289 0.432203
vt 0.558304 0.476633
vt 0.558304 0.432203
vt 0.603926 0.433993
vt 0.616477 0.433993
vt 0.616477 0.385477
vt 0.603926 0.288444
vt 0.616477 0.288444
vt 0.603926 0.385477
vt 0.591375 0.288444
vt 0.547289 0.387774
vt 0.536274 0.298916
vt 0.547289 0.298916
vt 0.563231 0.418064
vt 0.553738 0.341478
vt 0.563231 0.341478
vt 0.553738 0.418064
vt 0.544244 0.341478
vt 0.544244 0.418064
vt 0.534751 0.341478
vt 0.534751 0.418064
vt 0.525258 0.341478
vt 0.525258 0.418064
vt 0.515764 0.341478
vt 0.515764 0.418064
vt 0.506271 0.341478
vt 0.506271 0.418064
vt 0.496777 0.341478
vt 0.496777 0.418064
vt 0.487284 0.341478
vt 0.487284 0.418064
vt 0.477790 0.341478
vt 0.477790 0.418064
vt 0.468297 0.341478
vt 0.468297 0.418064
vt 0.458803 0.341478
vt 0.458803 0.418064
vt 0.449310 0.341478
vt 0.449310 0.418064
vt 0.439816 0.341478
vt 0.603926 0.409735
vt 0.616477 0.409735
vt 0.547289 0.409989
vt 0.558304 0.409989
vt 0.536274 0.409989
vt 0.439816 0.494649
vt 0.544244 0.571235
vt 0.534751 0.571235
vt 0.525258 0.571235
vt 0.515764 0.571235
vt 0.506271 0.571235
vt 0.496777 0.571235
vt 0.487284 0.571235
vt 0.544244 0.437210
vt 0.553738 0.437210
vt 0.534751 0.437210
vt 0.525258 0.437210
vt 0.515764 0.437210
vt 0.506271 0.437210
vt 0.496777 0.437210
vt 0.487284 0.437210
vt 0.477790 0.437210
vt 0.468297 0.437210
vt 0.458803 0.437210
vt 0.449310 0.437210
vt 0.439816 0.437210
vt 0.439816 0.418064
vt 0.563231 0.437210
vt 0.616477 0.628060
vt 0.603926 0.628060
vt 0.591375 0.579543
vt 0.547289 0.609921
vt 0.536274 0.565491
vt 0.553738 0.609527
vt 0.544244 0.609527
vt 0.534751 0.609527
vt 0.525258 0.609527
vt 0.515764 0.609527
vt 0.506271 0.609527
vt 0.496777 0.609527
vt 0.487284 0.609527
vt 0.536274 0.387774
vt 0.591375 0.385477
vt 0.439816 0.609527
vt 0.591375 0.628060
vt 0.536274 0.609921
vt 0.591375 0.409735
vn -0.4714 0.8819 0.0000
vn -0.0980 0.9952 0.0000
vn -0.2903 0.9569 0.0000
vn -0.6344 0.7730 0.0000
vn -0.7730 0.6344 0.0000
vn -0.8819 0.4714 0.0000
vn -0.9569 0.2903 0.0000
vn -0.9952 0.0980 0.0000
vn -0.9952 -0.0980 0.0000
vn -0.9569 -0.2903 -0.0000
vn -0.8819 -0.4714 0.0000
vn -0.7730 -0.6344 0.0000
vn 0.0980 0.9952 0.0000
vn 0.2903 0.9569 0.0000
vn 0.4714 0.8819 0.0000
vn -0.6344 -0.7730 0.0000
s off
f 73/1/1 42/2/1 41/3/1
f 43/4/2 61/5/2 85/6/2
f 42/2/3 85/6/3 84/7/3
f 41/3/1 84/7/1 83/8/1
f 40/9/4 83/8/4 82/10/4
f 39/11/5 82/10/5 81/12/5
f 38/13/6 81/12/6 80/14/6
f 37/15/7 80/14/7 79/16/7
f 36/17/8 79/16/8 78/18/8
f 35/19/9 78/18/9 77/20/9
f 34/21/10 77/20/10 76/22/10
f 33/23/11 76/22/11 75/24/11
f 32/25/12 75/24/12 74/26/12
f 101/27/4 73/1/4 91/28/4
f 24/29/1 72/30/1 73/1/1
f 25/31/3 71/32/3 72/30/3
f 26/33/2 89/34/2 71/32/2
f 89/35/13 20/36/13 19/37/13
f 65/38/14 21/39/14 20/36/14
f 23/40/15 22/41/15 21/42/15
f 90/43/12 33/23/12 32/25/12
f 72/30/3 43/4/3 42/2/3
f 21/42/15 64/44/15 63/45/15
f 20/46/14 63/45/14 62/47/14
f 19/37/13 62/48/13 61/49/13
f 60/50/13 2/51/13 1/52/13
f 44/53/14 3/54/14 2/51/14
f 45/55/15 4/56/15 3/57/15
f 47/58/16 7/59/16 6/60/16
f 48/61/12 8/62/12 7/59/12
f 49/63/11 9/64/11 8/62/11
f 50/65/10 10/66/10 9/64/10
f 51/67/9 11/68/9 10/66/9
f 52/69/8 12/70/8 11/68/8
f 53/71/7 13/72/7 12/70/7
f 54/73/6 14/74/6 13/72/6
f 55/75/5 15/76/5 14/74/5
f 56/77/4 16/78/4 15/76/4
f 57/79/1 17/80/1 16/78/1
f 58/81/3 18/82/3 17/80/3
f 59/83/2 1/84/2 18/82/2
f 61/49/13 86/85/13 115/86/13
f 62/47/14 87/87/14 86/88/14
f 63/45/15 88/89/15 87/87/15
f 71/32/2 19/90/2 43/4/2
f 91/28/4 41/3/4 40/9/4
f 66/91/11 34/21/11 33/23/11
f 97/92/10 35/19/10 34/21/10
f 96/93/9 36/17/9 35/19/9
f 95/94/8 37/15/8 36/17/8
f 94/95/7 38/13/7 37/15/7
f 93/96/6 39/11/6 38/13/6
f 92/97/5 40/9/5 39/11/5
f 74/26/12 104/98/12 103/99/12
f 75/24/11 105/100/11 104/98/11
f 76/22/10 106/101/10 105/100/10
f 77/20/9 107/102/9 106/101/9
f 78/18/8 108/103/8 107/102/8
f 79/16/7 109/104/7 108/103/7
f 80/14/6 110/105/6 109/104/6
f 81/12/5 111/106/5 110/105/5
f 82/10/4 112/107/4 111/106/4
f 83/8/1 113/108/1 112/107/1
f 84/7/3 114/109/3 113/108/3
f 85/6/2 115/110/2 114/109/2
f 114/109/2 60/111/2 59/83/2
f 113/108/3 59/83/3 58/81/3
f 112/107/1 58/81/1 57/79/1
f 111/106/4 57/79/4 56/77/4
f 110/105/5 56/77/5 55/75/5
f 109/104/6 55/75/6 54/73/6
f 108/103/7 54/73/7 53/71/7
f 107/102/8 53/71/8 52/69/8
f 106/101/9 52/69/9 51/67/9
f 105/100/10 51/67/10 50/65/10
f 104/98/11 50/65/11 49/63/11
f 103/99/12 49/63/12 48/61/12
f 102/112/16 48/61/16 47/58/16
f 70/113/13 65/38/13 89/35/13
f 28/114/14 23/115/14 65/38/14
f 30/116/15 5/117/15 23/40/15
f 67/118/12 66/91/12 90/43/12
f 68/119/11 97/92/11 66/91/11
f 69/120/10 96/93/10 97/92/10
f 98/121/9 95/94/9 96/93/9
f 27/122/8 94/95/8 95/94/8
f 29/123/7 93/96/7 94/95/7
f 99/124/6 92/97/6 93/96/6
f 100/125/5 91/28/5 92/97/5
f 87/87/15 46/126/15 45/55/15
f 86/85/14 45/127/14 44/53/14
f 115/86/13 44/53/13 60/50/13
f 73/1/1 72/30/1 42/2/1
f 43/4/2 19/90/2 61/5/2
f 42/2/3 43/4/3 85/6/3
f 41/3/1 42/2/1 84/7/1
f 40/9/4 41/3/4 83/8/4
f 39/11/5 40/9/5 82/10/5
f 38/13/6 39/11/6 81/12/6
f 37/15/7 38/13/7 80/14/7
f 36/17/8 37/15/8 79/16/8
f 35/19/9 36/17/9 78/18/9
f 34/21/10 35/19/10 77/20/10
f 33/23/11 34/21/11 76/22/11
f 32/25/12 33/23/12 75/24/12
f 101/27/4 24/29/4 73/1/4
f 24/29/1 25/31/1 72/30/1
f 25/31/3 26/33/3 71/32/3
f 26/33/2 70/128/2 89/34/2
f 89/35/13 65/38/13 20/36/13
f 65/38/14 23/115/14 21/39/14
f 23/40/15 5/117/15 22/41/15
f 90/43/12 66/91/12 33/23/12
f 72/30/3 71/32/3 43/4/3
f 21/42/15 22/41/15 64/44/15
f 20/46/14 21/42/14 63/45/14
f 19/37/13 20/36/13 62/48/13
f 60/50/13 44/53/13 2/51/13
f 44/53/14 45/127/14 3/54/14
f 45/55/15 46/126/15 4/56/15
f 47/58/16 48/61/16 7/59/16
f 48/61/12 49/63/12 8/62/12
f 49/63/11 50/65/11 9/64/11
f 50/65/10 51/67/10 10/66/10
f 51/67/9 52/69/9 11/68/9
f 52/69/8 53/71/8 12/70/8
f 53/71/7 54/73/7 13/72/7
f 54/73/6 55/75/6 14/74/6
f 55/75/5 56/77/5 15/76/5
f 56/77/4 57/79/4 16/78/4
f 57/79/1 58/81/1 17/80/1
f 58/81/3 59/83/3 18/82/3
f 59/83/2 60/111/2 1/84/2
f 61/49/13 62/48/13 86/85/13
f 62/47/14 63/45/14 87/87/14
f 63/45/15 64/44/15 88/89/15
f 71/32/2 89/34/2 19/90/2
f 91/28/4 73/1/4 41/3/4
f 66/91/11 97/92/11 34/21/11
f 97/92/10 96/93/10 35/19/10
f 96/93/9 95/94/9 36/17/9
f 95/94/8 94/95/8 37/15/8
f 94/95/7 93/96/7 38/13/7
f 93/96/6 92/97/6 39/11/6
f 92/97/5 91/28/5 40/9/5
f 74/26/12 75/24/12 104/98/12
f 75/24/11 76/22/11 105/100/11
f 76/22/10 77/20/10 106/101/10
f 77/20/9 78/18/9 107/102/9
f 78/18/8 79/16/8 108/103/8
f 79/16/7 80/14/7 109/104/7
f 80/14/6 81/12/6 110/105/6
f 81/12/5 82/10/5 111/106/5
f 82/10/4 83/8/4 112/107/4
f 83/8/1 84/7/1 113/108/1
f 84/7/3 85/6/3 114/109/3
f 85/6/2 61/5/2 115/110/2
f 114/109/2 115/110/2 60/111/2
f 113/108/3 114/109/3 59/83/3
f 112/107/1 113/108/1 58/81/1
f 111/106/4 112/107/4 57/79/4
f 110/105/5 111/106/5 56/77/5
f 109/104/6 110/105/6 55/75/6
f 108/103/7 109/104/7 54/73/7
f 107/102/8 108/103/8 53/71/8
f 106/101/9 107/102/9 52/69/9
f 105/100/10 106/101/10 51/67/10
f 104/98/11 105/100/11 50/65/11
f 103/99/12 104/98/12 49/63/12
f 102/112/16 103/99/16 48/61/16
f 70/113/13 28/114/13 65/38/13
f 28/114/14 30/129/14 23/115/14
f 30/116/15 31/130/15 5/117/15
f 67/118/12 68/119/12 66/91/12
f 68/119/11 69/120/11 97/92/11
f 69/120/10 98/121/10 96/93/10
f 98/121/9 27/122/9 95/94/9
f 27/122/8 29/123/8 94/95/8
f 29/123/7 99/124/7 93/96/7
f 99/124/6 100/125/6 92/97/6
f 100/125/5 101/27/5 91/28/5
f 87/87/15 88/89/15 46/126/15
f 86/85/14 87/131/14 45/127/14
f 115/86/13 86/85/13 44/53/13
o Cylinder.001
v 0.159975 -0.681115 -1.230893
v 0.148812 -0.671954 -1.230893
v 0.139651 -0.660792 -1.230893
v 0.132844 -0.648057 -1.230893
v 0.128653 -0.634238 -1.230893
v 0.127237 -0.619868 -1.230893
v 0.128653 -0.605497 -1.230893
v 0.132844 -0.591679 -1.230893
v 0.139652 -0.578943 -1.230893
v 0.148812 -0.567781 -1.230893
v 0.148812 -0.567781 -1.608110
v 0.139652 -0.578943 -1.608110
v 0.132844 -0.591679 -1.608110
v 0.128653 -0.605497 -1.608110
v 0.127237 -0.619868 -1.608110
v 0.128653 -0.634238 -1.608110
v 0.132844 -0.648057 -1.608110
v 0.139651 -0.660792 -1.608110
v 0.148812 -0.671954 -1.608110
v 0.159975 -0.681115 -1.608110
v 0.159975 -0.681115 -2.362543
v 0.148812 -0.671954 -2.362543
v 0.139651 -0.660792 -2.362543
v 0.132844 -0.648056 -2.362543
v 0.128653 -0.634238 -2.362543
v 0.127237 -0.619867 -2.362543
v 0.128653 -0.605497 -2.362543
v 0.132844 -0.591679 -2.362543
v 0.139652 -0.578943 -2.362543
v 0.148812 -0.567781 -2.362543
v 0.159975 -0.681115 -1.136589
v 0.148812 -0.671954 -1.136589
v 0.139651 -0.660792 -1.136589
v 0.132844 -0.648057 -1.136589
v 0.128653 -0.634238 -1.136589
v 0.127237 -0.619868 -1.136589
v 0.128653 -0.605497 -1.136589
v 0.132844 -0.591679 -1.136589
v 0.139652 -0.578943 -1.136589
v 0.148812 -0.567781 -1.136589
vt 0.489813 0.483085
vt 0.544192 0.464612
vt 0.544192 0.483085
vt 0.489813 0.464612
vt 0.544192 0.446139
vt 0.489813 0.446139
vt 0.544192 0.427665
vt 0.489813 0.427666
vt 0.544192 0.409192
vt 0.489813 0.409192
vt 0.544192 0.390719
vt 0.489813 0.390719
vt 0.544192 0.372246
vt 0.467520 0.544254
vt 0.576278 0.525781
vt 0.576278 0.544254
vt 0.467520 0.525781
vt 0.576278 0.507308
vt 0.467520 0.507308
vt 0.576278 0.488835
vt 0.467520 0.488835
vt 0.576278 0.470362
vt 0.467520 0.470362
vt 0.576278 0.451889
vt 0.467520 0.451889
vt 0.576278 0.433416
vt 0.467520 0.433416
vt 0.576278 0.414942
vt 0.467520 0.414943
vt 0.576278 0.396469
vt 0.467520 0.396470
vt 0.576277 0.377996
vt 0.489813 0.501558
vt 0.544192 0.501558
vt 0.489813 0.520031
vt 0.544192 0.520031
vt 0.489813 0.538504
vt 0.544192 0.538504
vt 0.476218 0.538504
vt 0.476218 0.520031
vt 0.476218 0.501558
vt 0.476218 0.483085
vt 0.476218 0.464612
vt 0.476218 0.446139
vt 0.476218 0.427666
vt 0.476218 0.409192
vt 0.476218 0.390719
vt 0.489813 0.372246
vt 0.467519 0.377996
vt 0.476218 0.372246
vn -0.9569 -0.2903 0.0000
vn -0.9952 -0.0980 0.0000
vn -0.9952 0.0980 0.0000
vn -0.9569 0.2903 0.0000
vn -0.8819 0.4714 0.0000
vn -0.7730 0.6344 0.0000
vn -0.6344 -0.7730 0.0000
vn -0.7730 -0.6344 -0.0000
vn -0.8819 -0.4714 -0.0000
s off
f 119/132/17 131/133/17 132/134/17
f 120/135/18 130/136/18 131/133/18
f 121/137/19 129/138/19 130/136/19
f 122/139/20 128/140/20 129/138/20
f 123/141/21 127/142/21 128/140/21
f 124/143/22 126/144/22 127/142/22
f 135/145/23 137/146/23 136/147/23
f 134/148/24 138/149/24 137/146/24
f 133/150/25 139/151/25 138/149/25
f 132/152/17 140/153/17 139/151/17
f 131/154/18 141/155/18 140/153/18
f 130/156/19 142/157/19 141/155/19
f 129/158/20 143/159/20 142/157/20
f 128/160/21 144/161/21 143/159/21
f 127/162/22 145/163/22 144/161/22
f 118/164/25 132/134/25 133/165/25
f 117/166/24 133/165/24 134/167/24
f 116/168/23 134/167/23 135/169/23
f 146/170/23 117/166/23 116/168/23
f 147/171/24 118/164/24 117/166/24
f 148/172/25 119/132/25 118/164/25
f 149/173/17 120/135/17 119/132/17
f 150/174/18 121/137/18 120/135/18
f 151/175/19 122/139/19 121/137/19
f 152/176/20 123/141/20 122/139/20
f 153/177/21 124/143/21 123/141/21
f 154/178/22 125/179/22 124/143/22
f 119/132/17 120/135/17 131/133/17
f 120/135/18 121/137/18 130/136/18
f 121/137/19 122/139/19 129/138/19
f 122/139/20 123/141/20 128/140/20
f 123/141/21 124/143/21 127/142/21
f 124/143/22 125/179/22 126/144/22
f 135/145/23 134/148/23 137/146/23
f 134/148/24 133/150/24 138/149/24
f 133/150/25 132/152/25 139/151/25
f 132/152/17 131/154/17 140/153/17
f 131/154/18 130/156/18 141/155/18
f 130/156/19 129/158/19 142/157/19
f 129/158/20 128/160/20 143/159/20
f 128/160/21 127/162/21 144/161/21
f 127/162/22 126/180/22 145/163/22
f 118/164/25 119/132/25 132/134/25
f 117/166/24 118/164/24 133/165/24
f 116/168/23 117/166/23 134/167/23
f 146/170/23 147/171/23 117/166/23
f 147/171/24 148/172/24 118/164/24
f 148/172/25 149/173/25 119/132/25
f 149/173/17 150/174/17 120/135/17
f 150/174/18 151/175/18 121/137/18
f 151/175/19 152/176/19 122/139/19
f 152/176/20 153/177/20 123/141/20
f 153/177/21 154/178/21 124/143/21
f 154/178/22 155/181/22 125/179/22
o Cylinder.002
v 0.200899 -0.533638 -1.167922
v 0.217850 -0.535308 -1.167922
v 0.234150 -0.540253 -1.167922
v 0.249172 -0.548282 -1.167922
v 0.262339 -0.559088 -1.167922
v 0.273145 -0.572255 -1.167922
v 0.281174 -0.587277 -1.167922
v 0.286119 -0.603577 -1.167922
v 0.287788 -0.620528 -1.167922
v 0.286119 -0.637480 -1.167922
v 0.281174 -0.653780 -1.167922
v 0.273145 -0.668802 -1.167922
v 0.262339 -0.681969 -1.167922
v 0.249172 -0.692774 -1.167922
v 0.234150 -0.700804 -1.167922
v 0.217850 -0.705748 -1.167922
v 0.200899 -0.707418 -1.167922
v 0.183947 -0.705748 -1.167922
v 0.167647 -0.700804 -1.167922
v 0.152625 -0.692774 -1.694751
v 0.152625 -0.692774 -1.167922
v 0.139458 -0.681969 -1.694751
v 0.139458 -0.681969 -1.167922
v 0.128652 -0.668802 -1.694751
v 0.128652 -0.668802 -1.167922
v 0.120623 -0.653779 -1.694751
v 0.120623 -0.653779 -1.167922
v 0.115678 -0.637479 -1.694751
v 0.115678 -0.637479 -1.167922
v 0.114009 -0.620528 -1.694751
v 0.114009 -0.620528 -1.167922
v 0.115678 -0.603577 -1.694751
v 0.115678 -0.603577 -1.167922
v 0.120623 -0.587277 -1.694751
v 0.120623 -0.587277 -1.167922
v 0.128653 -0.572255 -1.694751
v 0.128653 -0.572255 -1.167922
v 0.139458 -0.559088 -1.694751
v 0.139458 -0.559088 -1.167922
v 0.152625 -0.548282 -1.167922
v 0.167647 -0.540253 -1.167922
v 0.183947 -0.535308 -1.167922
vt 0.918305 0.972011
vt 0.908079 0.658331
vt 0.918305 0.658331
vt 0.908079 0.972011
vt 0.897854 0.658331
vt 0.897854 0.972011
vt 0.887628 0.658331
vt 0.887628 0.972011
vt 0.877403 0.658331
vt 0.877403 0.972011
vt 0.867177 0.658331
vt 0.867177 0.972011
vt 0.856951 0.658331
vt 0.856951 0.972011
vt 0.846726 0.658331
vt 0.846726 0.972011
vt 0.836500 0.658331
vt 0.836500 0.972011
vt 0.826275 0.658331
vt 0.747478 0.855195
vt 0.806387 0.712976
vt 0.948606 0.771885
vt 0.826275 0.972011
vt 0.889697 0.914104
vt 0.869278 0.920298
vt 0.848042 0.922390
vt 0.826807 0.920298
vt 0.806388 0.914104
vt 0.787569 0.904045
vt 0.771074 0.890508
vt 0.757537 0.874014
vt 0.741284 0.834776
vt 0.739193 0.813540
vt 0.741284 0.792305
vt 0.747478 0.771885
vt 0.757537 0.753066
vt 0.771074 0.736572
vt 0.787569 0.723035
vt 0.826807 0.706782
vt 0.848042 0.704690
vt 0.869278 0.706782
vt 0.889697 0.712976
vt 0.908516 0.723035
vt 0.925011 0.736572
vt 0.938548 0.753066
vt 0.954801 0.792304
vt 0.956892 0.813540
vt 0.954801 0.834775
vt 0.948606 0.855195
vt 0.938548 0.874014
vt 0.925011 0.890508
vt 0.908516 0.904045
vn -0.6344 -0.7730 -0.0000
vn -0.7730 -0.6344 0.0000
vn -0.8819 -0.4714 0.0000
vn -0.9569 -0.2903 -0.0000
vn -0.9952 -0.0980 0.0000
vn -0.9952 0.0980 0.0000
vn -0.9569 0.2903 0.0000
vn -0.8819 0.4714 0.0000
vn -0.7730 0.6344 0.0000
vn 0.0000 0.0000 1.0000
vn 0.0001 0.0000 1.0000
vn -0.0001 0.0000 1.0000
s off
f 176/182/26 177/183/26 175/184/26
f 178/185/27 179/186/27 177/183/27
f 180/187/28 181/188/28 179/186/28
f 182/189/29 183/190/29 181/188/29
f 184/191/30 185/192/30 183/190/30
f 186/193/31 187/194/31 185/192/31
f 188/195/32 189/196/32 187/194/32
f 190/197/33 191/198/33 189/196/33
f 192/199/34 193/200/34 191/198/34
f 190/201/35 174/202/35 166/203/35
f 176/182/26 178/185/26 177/183/26
f 178/185/27 180/187/27 179/186/27
f 180/187/28 182/189/28 181/188/28
f 182/189/29 184/191/29 183/190/29
f 184/191/30 186/193/30 185/192/30
f 186/193/31 188/195/31 187/194/31
f 188/195/32 190/197/32 189/196/32
f 190/197/33 192/199/33 191/198/33
f 192/199/34 194/204/34 193/200/34
f 158/205/35 157/206/35 156/207/35
f 156/207/35 197/208/35 158/205/35
f 197/208/35 196/209/35 158/205/35
f 196/209/35 195/210/35 194/211/35
f 194/211/36 192/212/36 190/201/36
f 190/201/35 188/213/35 186/214/35
f 186/214/35 184/215/35 190/201/35
f 184/215/35 182/216/35 190/201/35
f 182/216/35 180/217/35 178/218/35
f 178/218/35 176/219/35 174/202/35
f 174/202/35 173/220/35 172/221/35
f 172/221/35 171/222/35 170/223/35
f 170/223/35 169/224/35 168/225/35
f 168/225/37 167/226/37 166/203/37
f 166/203/35 165/227/35 164/228/35
f 164/228/35 163/229/35 166/203/35
f 163/229/35 162/230/35 166/203/35
f 162/230/35 161/231/35 160/232/35
f 160/232/35 159/233/35 158/205/35
f 196/209/35 194/211/35 158/205/35
f 194/211/35 190/201/35 158/205/35
f 182/216/35 178/218/35 174/202/35
f 174/202/35 172/221/35 166/203/35
f 172/221/35 170/223/35 166/203/35
f 170/223/35 168/225/35 166/203/35
f 162/230/35 160/232/35 166/203/35
f 160/232/35 158/205/35 166/203/35
f 190/201/35 182/216/35 174/202/35
f 158/205/35 190/201/35 166/203/35
o Cube_Cube.001
v 0.124935 -0.715731 -0.550136
v 0.124935 -0.429474 -0.550136
v 0.124935 -0.715731 -1.112583
v 0.124935 -0.429474 -1.112583
v 0.276862 -0.429474 -0.550136
v 0.276862 -0.429474 -1.112583
v 0.124935 -0.906461 -0.164248
v 0.124935 -0.620203 -0.164248
v 0.276862 -0.620203 -0.164248
v 0.124935 -1.165883 0.866708
v 0.124935 -0.620203 0.866708
v 0.276862 -0.620203 0.866708
v 0.124935 -0.715731 -0.831360
v 0.124935 -0.715731 -0.690748
v 0.124935 -0.715731 -0.971971
v 0.124935 -0.715731 -0.620442
v 0.124935 -0.715731 -0.901665
v 0.124935 -0.715731 -0.761054
v 0.124935 -0.715731 -1.042277
v 0.124935 -0.715731 -0.866512
v 0.124935 -0.715731 -0.796207
v 0.124935 -0.715731 -0.725901
v 0.124935 -0.715731 -0.655595
v 0.124935 -0.715731 -0.585289
v 0.124935 -0.715731 -0.936818
v 0.124935 -0.715731 -1.009714
v 0.124935 -0.715731 -1.077430
v 0.124935 -0.715731 -0.638019
vt 0.653852 0.452080
vt 0.653852 0.466198
vt 0.427967 0.565022
vt 0.733430 0.766922
vt 0.957870 0.853593
vt 0.732369 0.853222
vt 0.655074 0.480233
vt 0.430941 0.396650
vt 0.655440 0.396786
vt 0.784582 0.793303
vt 0.934949 0.846909
vt 0.784582 0.953937
vt 0.996986 0.814983
vt 0.779687 0.696434
vt 0.996986 0.696434
vt 0.752962 0.743080
vt 0.971648 0.851743
vt 0.752933 0.851694
vt 0.653852 0.550905
vt 0.653852 0.565023
vt 0.427967 0.339137
vt 0.653852 0.339137
vt 0.653852 0.353255
vt 0.653852 0.367373
vt 0.653852 0.380451
vt 0.653852 0.395609
vt 0.653852 0.536787
vt 0.653852 0.508551
vt 0.653852 0.522669
vt 0.653852 0.529728
vt 0.653852 0.409726
vt 0.653852 0.423844
vt 0.653852 0.437962
vt 0.653852 0.480316
vt 0.653852 0.494433
vt 0.958931 0.767294
vt 0.430575 0.480097
vt 0.934949 0.686275
vt 0.779687 0.922419
vt 0.971678 0.743130
vn -1.0000 0.0000 0.0000
vn 0.0000 0.8965 0.4431
vn 0.0000 1.0000 0.0000
s off
f 210/234/38 218/235/38 199/236/38
f 199/237/39 206/238/39 202/239/39
f 201/240/40 202/241/40 203/242/40
f 198/243/38 205/244/38 199/245/38
f 204/246/38 208/247/38 205/248/38
f 205/249/40 209/250/40 206/251/40
f 221/252/38 198/253/38 199/236/38
f 199/236/38 201/254/38 210/234/38
f 201/254/38 200/255/38 224/256/38
f 224/256/38 216/257/38 201/254/38
f 216/257/38 223/258/38 201/254/38
f 201/254/38 223/258/38 212/259/38
f 213/260/38 221/252/38 199/236/38
f 211/261/38 220/262/38 199/236/38
f 220/262/38 225/263/38 199/236/38
f 225/263/38 213/260/38 199/236/38
f 212/259/38 222/264/38 201/254/38
f 222/264/38 214/265/38 201/254/38
f 201/254/38 214/265/38 217/266/38
f 218/235/38 215/267/38 199/236/38
f 215/267/38 219/268/38 199/236/38
f 219/268/38 211/261/38 199/236/38
f 217/266/38 210/234/38 201/254/38
f 199/237/39 205/269/39 206/238/39
f 201/240/40 199/270/40 202/241/40
f 198/243/38 204/271/38 205/244/38
f 204/246/38 207/272/38 208/247/38
f 205/249/40 208/273/40 209/250/40
