# Blender v2.82 (sub 7) OBJ File: 'Portal.blend'
# www.blender.org
o Cube_Cube.001
v -1.567638 0.000000 1.567638
v -1.000000 0.467062 1.000000
v -1.567638 0.000000 -1.567638
v -1.000000 0.467062 -1.000000
v 1.567638 0.000000 1.567638
v 1.000000 0.467062 1.000000
v 1.567638 0.000000 -1.567638
v 1.000000 0.467062 -1.000000
vt 0.661871 0.578212
vt 0.411872 0.330447
vt 0.411872 0.578212
vt 0.661871 0.330447
vt 0.411872 0.580447
vt 0.661871 0.580447
vt 0.411872 0.329330
vt 0.661871 0.329330
vt 0.411872 0.579330
vt 0.696788 0.359218
vt 0.446788 0.609218
vt 0.446788 0.359218
vt 0.699022 0.375978
vt 0.449022 0.625978
vt 0.449022 0.375978
vt 0.661871 0.579330
vt 0.696788 0.609218
vt 0.699022 0.625978
vn -0.6354 0.7722 0.0000
vn 0.0000 0.7722 -0.6354
vn 0.6354 0.7722 0.0000
vn 0.0000 0.7722 0.6354
vn 0.0000 -1.0000 0.0000
vn 0.0000 1.0000 0.0000
s off
f 2/1/1 3/2/1 1/3/1
f 4/4/2 7/5/2 3/2/2
f 8/6/3 5/7/3 7/5/3
f 6/8/4 1/9/4 5/7/4
f 7/10/5 1/11/5 3/12/5
f 4/13/6 6/14/6 8/15/6
f 2/1/1 4/4/1 3/2/1
f 4/4/2 8/6/2 7/5/2
f 8/6/3 6/8/3 5/7/3
f 6/8/4 2/16/4 1/9/4
f 7/10/5 5/17/5 1/11/5
f 4/13/6 2/18/6 6/14/6
